<?xml version="1.0" standalone="no"?>
<!DOCTYPE svg PUBLIC "-//W3C//DTD SVG 20010904//EN"
        "http://www.w3.org/TR/2001/REC-SVG-20010904/DTD/svg10.dtd">
<svg version="1.0" xmlns="http://www.w3.org/2000/svg"
     width="2256.000000pt" height="2256.000000pt" viewBox="0 0 2256.000000 2256.000000"
     preserveAspectRatio="xMidYMid meet">
    <metadata>
        Created by potrace 1.11, written by Peter Selinger 2001-2013
    </metadata>
    <g transform="translate(0.000000,2256.000000) scale(0.100000,-0.100000)"
       fill="#000000" stroke="none">
        <path d="M11037 22163 c-1 0 -83 -4 -182 -7 -210 -8 -252 -10 -545 -32 -74 -5
-178 -16 -290 -29 -19 -3 -93 -12 -165 -20 -71 -9 -141 -18 -155 -20 -14 -2
-45 -7 -70 -10 -25 -3 -72 -11 -105 -16 -33 -6 -73 -13 -90 -15 -16 -2 -41 -6
-55 -9 -14 -3 -77 -14 -140 -25 -63 -12 -135 -25 -160 -30 -143 -32 -233 -51
-260 -56 -14 -3 -33 -7 -42 -10 -10 -3 -30 -7 -45 -10 -16 -3 -107 -25 -203
-50 -445 -115 -883 -256 -1290 -416 -151 -60 -424 -174 -443 -185 -5 -3 137
-78 315 -167 178 -89 346 -175 373 -190 28 -16 91 -51 140 -79 309 -173 590
-346 882 -543 152 -103 420 -291 458 -321 6 -4 55 -42 110 -83 87 -65 342
-264 400 -311 89 -74 346 -289 370 -310 17 -14 71 -62 120 -105 50 -44 113
-100 140 -125 28 -26 72 -66 99 -90 127 -114 267 -249 571 -554 307 -307 540
-550 710 -741 6 -6 48 -53 95 -104 47 -51 93 -102 103 -114 10 -11 31 -34 45
-51 15 -16 78 -88 141 -160 63 -71 128 -146 145 -165 17 -19 56 -64 86 -100
30 -36 60 -69 66 -75 5 -5 50 -57 100 -115 49 -58 94 -110 99 -116 6 -6 35
-40 65 -75 212 -245 498 -542 680 -705 30 -27 59 -54 65 -60 33 -36 299 -249
380 -304 28 -18 52 -36 55 -40 18 -22 258 -165 370 -221 419 -209 770 -239
1048 -89 250 135 427 407 518 795 15 68 45 275 51 360 12 167 6 542 -11 630
-2 11 -7 52 -11 90 -4 39 -9 77 -10 86 -2 9 -6 34 -10 55 -9 59 -15 94 -25
154 -6 30 -13 69 -15 85 -3 17 -8 38 -11 47 -3 10 -7 30 -10 44 -28 156 -173
646 -235 799 -5 11 -22 56 -39 100 -17 44 -34 89 -39 100 -117 276 -269 595
-373 785 -17 30 -43 78 -58 105 -93 170 -185 330 -192 333 -4 2 -8 8 -8 14 0
6 -22 47 -49 92 -27 44 -57 95 -67 113 -34 57 -169 276 -270 436 -55 88 -536
813 -574 866 -14 19 -30 42 -37 50 -11 15 -163 231 -207 296 -41 59 -280 390
-286 395 -3 3 -17 21 -30 40 -31 46 -33 46 -99 55 -31 4 -65 8 -76 10 -25 5
-100 15 -140 20 -16 2 -52 7 -80 10 -53 7 -64 9 -160 19 -221 25 -249 28 -450
41 -60 4 -128 9 -150 11 -110 9 -831 24 -838 17z m2928 -3798 c58 -11 141 -36
205 -61 444 -174 795 -649 868 -1179 14 -98 7 -356 -11 -445 -65 -313 -230
-562 -462 -697 -140 -81 -277 -117 -450 -116 -169 1 -292 31 -460 115 -147 74
-333 226 -443 363 -163 203 -293 500 -329 755 -10 71 -10 351 0 410 73 417
300 711 639 824 42 14 100 30 130 35 55 9 261 7 313 -4z"/>
        <path d="M13442 21894 c31 -32 69 -73 85 -90 15 -17 67 -74 114 -125 47 -52
148 -164 224 -249 76 -85 152 -171 169 -190 106 -119 420 -490 566 -670 25
-30 47 -57 50 -60 5 -5 203 -255 337 -425 467 -596 975 -1342 1373 -2015 119
-203 144 -246 221 -387 18 -32 35 -62 39 -68 22 -30 320 -617 410 -809 66
-141 157 -349 222 -506 32 -80 63 -154 68 -165 9 -21 29 -71 75 -190 97 -250
233 -658 311 -935 24 -83 92 -340 99 -370 2 -8 12 -54 24 -102 11 -48 23 -98
25 -110 3 -13 14 -68 26 -123 12 -55 24 -111 26 -125 2 -14 9 -45 14 -70 8
-38 17 -89 35 -195 2 -11 11 -65 20 -120 23 -150 25 -158 29 -180 2 -11 7 -47
11 -80 4 -33 9 -69 10 -80 5 -34 15 -119 19 -150 2 -16 7 -59 11 -95 4 -36 9
-78 11 -95 2 -16 6 -61 10 -100 3 -38 7 -86 9 -105 2 -19 6 -82 10 -140 4 -58
8 -116 10 -130 6 -42 18 -456 18 -625 0 -157 -11 -546 -18 -615 -1 -19 -6 -78
-9 -131 -10 -145 -13 -175 -42 -434 -83 -740 -312 -1620 -602 -2315 -38 -91
-55 -130 -125 -285 -200 -445 -514 -987 -827 -1425 -93 -129 -376 -493 -422
-541 -7 -8 -42 -48 -77 -89 -122 -144 -247 -277 -456 -485 -240 -240 -337
-330 -530 -495 -27 -23 -61 -52 -75 -64 -145 -125 -462 -366 -680 -518 -85
-59 -159 -111 -165 -115 -5 -5 -30 -21 -54 -36 -24 -16 -39 -32 -35 -36 68
-61 389 -288 451 -319 171 -86 343 -149 553 -202 215 -54 387 -84 600 -106 30
-3 71 -7 90 -9 229 -26 864 -26 1120 0 19 2 67 6 105 9 39 4 86 9 105 11 35 5
79 10 180 20 30 3 96 12 145 20 50 7 108 16 130 19 41 6 304 53 340 60 11 2
65 14 120 26 55 12 109 23 120 25 283 59 869 237 1130 345 17 7 39 16 50 21
188 76 528 241 597 290 14 11 29 19 32 19 12 0 239 156 306 210 40 31 85 81
117 128 29 42 57 82 62 88 18 21 194 298 279 439 102 169 282 488 341 605 23
47 47 92 52 100 61 99 337 717 441 990 32 85 65 171 73 190 15 40 27 71 31 85
2 6 33 98 69 205 133 390 252 827 329 1200 38 186 55 271 60 301 3 20 8 42 10
50 6 16 72 447 81 524 3 28 9 84 14 125 6 41 13 104 16 140 3 36 8 79 10 95 2
17 6 62 9 100 3 39 8 106 11 150 28 371 36 821 21 1220 -4 116 -9 228 -11 250
-1 22 -6 90 -10 150 -3 61 -8 124 -10 140 -3 17 -7 62 -10 100 -2 39 -7 88
-10 110 -9 66 -15 117 -20 175 -3 30 -8 66 -10 80 -3 14 -9 61 -15 105 -6 44
-13 92 -15 106 -3 14 -7 41 -9 60 -8 55 -16 109 -32 194 -8 44 -17 94 -20 110
-3 17 -9 53 -15 80 -5 28 -11 59 -13 70 -30 159 -110 501 -152 655 -14 52 -32
120 -40 150 -8 30 -16 62 -18 70 -26 98 -147 475 -211 655 -96 271 -264 687
-357 885 -71 151 -251 512 -301 605 -94 174 -101 187 -193 343 -141 242 -167
284 -205 342 -142 215 -195 296 -199 306 -3 6 -20 31 -38 55 -18 24 -64 89
-103 144 -78 112 -69 100 -210 285 -160 211 -383 483 -529 644 -19 22 -60 67
-90 100 -208 230 -534 554 -760 756 -52 47 -97 88 -100 91 -6 7 -203 175 -269
229 -24 19 -53 43 -64 53 -120 103 -472 369 -632 478 -44 30 -82 56 -85 59
-19 20 -372 248 -560 360 -360 216 -758 425 -1100 579 -63 29 -124 56 -135 61
-73 34 -236 101 -390 161 -99 39 -189 74 -200 79 -48 22 -380 133 -605 204
-242 75 -724 201 -884 230 -15 3 -34 7 -44 10 -9 3 -28 7 -42 10 -14 2 -43 7
-65 12 l-40 7 57 -59z"/>
        <path d="M6060 20861 c-59 -30 -152 -82 -211 -117 -31 -19 -61 -34 -66 -34 -5
0 -14 -5 -21 -12 -7 -7 -37 -26 -67 -43 -150 -83 -530 -327 -745 -478 -122
-86 -410 -299 -432 -320 -7 -6 -31 -25 -53 -42 -22 -16 -49 -37 -60 -46 -11
-9 -74 -61 -140 -115 -108 -89 -155 -129 -189 -159 -6 -6 -47 -42 -91 -80
-274 -240 -599 -561 -865 -854 -47 -52 -92 -101 -100 -110 -13 -14 -206 -241
-272 -320 -11 -13 -75 -94 -142 -180 -387 -495 -724 -1008 -1003 -1526 -29
-55 -57 -107 -62 -115 -15 -25 -216 -430 -249 -500 -91 -199 -160 -360 -233
-545 -33 -82 -64 -159 -69 -170 -5 -11 -23 -60 -40 -110 -18 -49 -36 -101 -42
-115 -69 -172 -292 -917 -324 -1083 -2 -10 -5 -26 -8 -35 -3 -9 -7 -28 -10
-42 -3 -14 -21 -95 -40 -182 -19 -86 -37 -172 -40 -192 -3 -20 -10 -55 -15
-78 -15 -68 -46 -241 -57 -323 -2 -16 -6 -41 -9 -55 -3 -14 -8 -45 -11 -70 -3
-25 -7 -56 -9 -70 -8 -52 -34 -257 -40 -315 -3 -33 -8 -71 -10 -85 -2 -14 -7
-61 -10 -105 -4 -44 -8 -98 -10 -120 -4 -44 -14 -175 -20 -270 -22 -333 -22
-1076 -1 -1300 3 -22 7 -87 11 -145 4 -58 8 -118 9 -135 2 -16 6 -64 10 -105
4 -41 9 -91 11 -110 2 -19 7 -60 10 -90 5 -48 11 -91 31 -245 2 -16 6 -50 9
-75 7 -53 41 -270 64 -398 6 -31 13 -73 16 -92 3 -19 10 -51 15 -70 5 -19 12
-53 16 -75 3 -22 19 -101 36 -175 16 -74 31 -143 33 -152 2 -9 10 -43 19 -75
8 -32 27 -105 42 -163 68 -269 266 -910 313 -1015 5 -11 50 -125 101 -254 123
-314 207 -505 360 -816 110 -223 265 -514 338 -635 12 -19 25 -42 29 -50 40
-88 512 -814 595 -915 5 -5 22 -28 38 -50 16 -22 33 -44 38 -50 4 -5 19 -26
32 -45 14 -19 30 -42 37 -50 6 -8 67 -85 134 -170 99 -126 317 -389 339 -410
3 -3 25 -27 49 -55 257 -290 646 -680 911 -915 47 -41 87 -77 90 -80 3 -3 48
-41 100 -85 52 -44 97 -82 100 -85 3 -3 52 -44 110 -90 58 -47 107 -87 110
-90 3 -3 50 -39 105 -80 55 -41 105 -79 111 -85 6 -5 55 -41 108 -80 54 -38
116 -84 139 -101 36 -27 365 -249 407 -274 8 -6 44 -28 80 -51 97 -62 409
-249 416 -249 3 0 18 -8 32 -19 15 -10 77 -44 137 -76 61 -32 115 -61 120 -65
17 -13 443 -224 565 -280 373 -170 744 -317 1090 -430 107 -35 204 -67 215
-71 93 -37 719 -204 835 -224 19 -3 49 -10 65 -15 32 -9 257 -55 315 -64 19
-3 46 -8 60 -11 23 -5 103 -19 160 -30 89 -16 391 -59 485 -70 28 -3 73 -8
100 -11 28 -2 64 -7 81 -9 16 -2 59 -7 95 -10 35 -3 82 -8 104 -10 22 -2 83
-7 135 -10 52 -4 115 -8 140 -11 297 -24 1081 -24 1395 1 22 2 85 6 140 10
134 10 149 11 230 19 107 10 157 16 195 21 19 3 62 8 95 11 33 3 67 7 75 9 36
6 98 15 140 20 42 5 201 30 245 39 11 2 52 9 90 15 107 17 120 19 120 21 0 1
11 3 25 6 14 2 48 9 76 14 28 6 64 13 80 16 16 3 70 14 119 26 50 11 99 22
110 23 11 2 67 15 125 30 58 14 116 28 129 31 59 12 307 81 486 135 127 39
525 170 545 180 8 4 78 31 155 59 77 28 152 58 167 66 14 7 31 14 36 14 11 0
327 133 427 180 33 15 92 42 130 60 188 85 665 333 805 419 19 11 42 24 50 28
38 17 394 239 560 349 167 110 475 327 561 396 19 15 79 62 134 104 100 78
294 235 350 285 17 14 89 77 160 139 72 63 161 143 200 179 84 79 499 495 571
572 27 30 74 80 103 111 l54 58 -184 -89 c-239 -115 -505 -219 -764 -298 -281
-86 -698 -181 -992 -227 -16 -3 -71 -11 -123 -20 -52 -8 -122 -18 -155 -21
-33 -4 -67 -8 -75 -10 -8 -2 -44 -7 -80 -10 -36 -4 -78 -8 -95 -10 -102 -12
-235 -24 -340 -30 -49 -4 -117 -8 -150 -10 -103 -8 -493 -19 -660 -19 -164 0
-589 12 -660 18 -22 2 -89 7 -150 11 -60 3 -126 8 -145 10 -19 2 -66 7 -105
10 -38 3 -83 8 -100 10 -16 2 -57 7 -90 10 -33 3 -94 10 -135 15 -42 6 -94 13
-115 15 -22 3 -51 7 -65 10 -14 3 -45 7 -70 10 -25 3 -56 7 -70 10 -14 2 -41
7 -60 10 -19 3 -84 15 -145 26 -60 12 -121 23 -135 26 -20 3 -205 45 -255 57
-5 1 -26 6 -45 10 -79 18 -292 80 -418 123 -125 42 -191 68 -349 138 l-62 27
-86 -41 c-48 -23 -89 -41 -92 -41 -2 0 -30 -12 -61 -26 -31 -14 -147 -62 -257
-106 -110 -43 -209 -83 -220 -88 -11 -4 -49 -18 -85 -30 -36 -12 -74 -26 -85
-31 -93 -41 -780 -254 -889 -275 -10 -2 -42 -10 -70 -18 -137 -39 -646 -150
-781 -170 -22 -4 -65 -11 -95 -16 -30 -5 -71 -12 -90 -15 -19 -3 -46 -8 -60
-10 -87 -14 -206 -31 -275 -40 -22 -2 -62 -7 -90 -10 -96 -12 -120 -14 -180
-20 -33 -3 -80 -8 -103 -11 -24 -2 -81 -7 -125 -10 -45 -3 -107 -7 -137 -10
-306 -22 -1041 -23 -1250 0 -19 2 -80 7 -135 10 -55 4 -116 9 -135 11 -19 2
-60 6 -91 10 -31 3 -65 7 -75 9 -11 2 -50 7 -87 11 -37 3 -78 8 -90 11 -12 2
-40 6 -62 9 -22 3 -51 7 -65 9 -14 3 -43 7 -65 11 -22 3 -76 12 -120 20 -44 8
-93 17 -110 20 -86 14 -186 36 -355 77 -360 86 -716 199 -998 315 -48 19 -109
44 -137 55 -77 30 -431 205 -503 249 -35 21 -65 39 -67 39 -6 0 -146 87 -265
165 -189 123 -436 313 -605 465 -91 82 -410 404 -476 480 -35 41 -67 77 -70
80 -13 11 -200 251 -261 335 -96 131 -244 360 -333 515 -69 119 -255 480 -255
494 0 2 -17 42 -38 88 -109 236 -287 752 -326 943 -3 11 -14 63 -26 115 -37
162 -47 211 -70 345 -29 175 -28 164 -46 325 -3 30 -8 68 -10 85 -26 222 -26
914 1 1065 2 14 7 54 11 90 3 36 8 72 9 82 2 9 7 38 11 65 3 26 8 57 10 68 2
10 6 35 9 55 3 20 7 45 9 55 29 140 40 188 52 230 8 28 14 52 14 55 1 9 21 85
51 190 110 376 294 768 529 1125 29 43 84 120 90 125 3 3 17 21 30 40 89 128
365 419 533 564 510 438 1166 742 1926 891 40 8 270 43 326 49 28 4 68 9 90
11 174 21 347 29 610 29 208 0 412 -7 520 -19 22 -2 63 -6 90 -9 107 -11 165
-18 295 -37 181 -27 177 -26 240 -39 30 -6 78 -15 105 -20 312 -57 780 -194
1140 -334 66 -26 129 -51 140 -56 338 -151 601 -279 704 -344 22 -14 43 -26
45 -26 18 0 529 -327 579 -371 7 -5 59 -45 117 -89 275 -206 577 -482 804
-735 127 -141 135 -151 176 -205 19 -25 40 -49 46 -55 24 -21 215 -285 296
-410 184 -281 344 -589 466 -895 59 -150 146 -398 157 -451 2 -9 12 -47 24
-85 11 -38 23 -86 26 -106 4 -22 12 -35 17 -32 26 16 120 268 143 384 2 8 10
45 19 82 8 37 20 95 26 130 5 35 12 72 14 83 2 11 7 43 10 70 4 28 11 84 16
125 5 41 12 107 15 145 3 39 8 86 10 105 25 213 25 1189 0 1460 -2 19 -6 89
-10 155 -4 66 -8 132 -10 147 -2 14 -6 64 -10 110 -11 141 -13 161 -19 233
-11 117 -26 255 -31 295 -3 14 -7 61 -10 105 -4 43 -8 82 -10 85 -2 3 -6 37
-10 75 -3 39 -8 81 -10 95 -6 41 -14 98 -30 230 -8 69 -17 134 -19 145 -2 11
-7 45 -11 75 -3 30 -8 66 -10 80 -2 14 -6 43 -10 65 -3 23 -7 50 -9 60 -2 11
-7 43 -10 70 -15 106 -28 188 -46 295 -6 30 -12 73 -15 95 -3 22 -7 50 -9 62
-3 11 -8 43 -12 70 -3 26 -8 57 -10 68 -3 11 -7 36 -10 55 -2 19 -8 49 -11 65
-4 17 -7 37 -9 45 -1 8 -5 35 -9 60 -14 93 -76 395 -105 518 -200 829 -567
1645 -1091 2430 -215 321 -517 717 -714 936 -5 6 -39 45 -75 86 -36 41 -72 81
-80 90 -8 9 -55 61 -105 115 -102 112 -472 485 -586 590 -131 121 -194 179
-235 215 -56 51 -260 227 -323 280 -30 25 -68 57 -85 71 -17 14 -71 59 -121
98 -49 40 -97 77 -105 84 -8 7 -73 57 -145 112 -71 55 -134 103 -140 108 -26
21 -286 208 -425 306 -340 238 -667 447 -1010 648 -248 145 -477 273 -487 273
-4 -1 -24 -9 -43 -19z"/>
        <path d="M6619 12026 c-2 -2 -56 -7 -119 -11 -62 -3 -116 -8 -120 -10 -3 -1
-36 -6 -75 -9 -38 -4 -99 -11 -135 -17 -36 -6 -76 -12 -90 -14 -173 -24 -519
-112 -730 -184 -628 -214 -1163 -542 -1600 -981 -155 -155 -165 -167 -284
-315 -83 -103 -276 -383 -276 -401 0 -4 -6 -15 -14 -23 -24 -26 -171 -327
-216 -441 -66 -165 -143 -411 -164 -524 -2 -11 -7 -32 -10 -46 -3 -14 -8 -36
-10 -50 -3 -14 -9 -47 -14 -75 -6 -27 -13 -79 -17 -115 -4 -36 -8 -67 -10 -70
-8 -14 -18 -216 -19 -380 -1 -197 6 -310 29 -485 5 -43 30 -184 40 -225 3 -14
10 -47 15 -75 28 -144 136 -471 206 -623 13 -29 24 -55 24 -58 0 -8 113 -234
145 -289 81 -141 216 -357 235 -375 3 -3 30 -38 60 -79 130 -177 232 -294 420
-480 270 -268 543 -479 884 -684 101 -60 398 -214 491 -254 105 -45 273 -113
321 -128 27 -9 58 -20 69 -25 35 -16 237 -78 355 -109 220 -58 511 -113 730
-137 36 -4 79 -8 95 -10 212 -24 775 -24 925 0 14 3 52 7 85 10 33 4 71 8 85
10 14 3 61 10 105 16 608 88 1278 344 1785 683 330 221 613 480 878 802 189
229 394 585 515 890 81 204 165 507 192 691 4 22 10 66 15 99 20 131 24 210
25 450 0 241 -5 330 -25 480 -112 809 -511 1578 -1144 2208 -55 54 -127 122
-160 150 -33 29 -67 59 -76 68 -75 72 -317 252 -487 362 -438 285 -927 498
-1454 632 -97 24 -189 47 -205 50 -16 3 -42 7 -59 10 -16 3 -52 10 -80 15 -46
9 -81 15 -145 25 -14 2 -52 7 -85 11 -33 3 -68 8 -79 10 -10 2 -51 6 -90 9
-39 4 -87 9 -106 12 -40 6 -626 14 -631 9z"/>
    </g>
</svg>
